<svg xmlns="http://www.w3.org/2000/svg" width="900" height="980" viewBox="0 0 900 980" fill="none">
  <rect width="900" height="980" fill="#F8FAFC"/>
  <text x="450" y="52" text-anchor="middle" font-family="Arial, sans-serif" font-size="28" font-weight="700" fill="#0F172A">Dekorasyon Ikon Alternatifleri</text>
  <text x="450" y="82" text-anchor="middle" font-family="Arial, sans-serif" font-size="14" fill="#475569">Header icin ayni stroke stilinde 10 secenek</text>

  <g font-family="Arial, sans-serif" stroke="#0F766E" stroke-width="2" stroke-linecap="round" stroke-linejoin="round">
    <!-- Card template positions -->
    <g transform="translate(50,120)">
      <rect width="370" height="140" rx="20" fill="#FFFFFF" stroke="#E2E8F0"/>
      <text x="28" y="34" font-size="20" font-weight="700" fill="#0F172A" stroke="none">1. Koltuk</text>
      <g transform="translate(34,54)">
        <path d="M8 36v-8a8 8 0 0 1 8-8h32a8 8 0 0 1 8 8v8"/>
        <path d="M12 20V12a8 8 0 0 1 8-8h8a8 8 0 0 1 8 8v8"/>
        <path d="M44 20V12a8 8 0 0 1 8-8h0a8 8 0 0 1 8 8v8"/>
        <path d="M4 36h60"/>
        <path d="M14 36v8"/>
        <path d="M54 36v8"/>
      </g>
      <text x="110" y="84" font-size="14" fill="#334155" stroke="none">Dogrudan mobilya / staging hissi</text>
      <text x="110" y="106" font-size="13" fill="#64748B" stroke="none">Guclu, net, okunakli</text>
    </g>

    <g transform="translate(480,120)">
      <rect width="370" height="140" rx="20" fill="#FFFFFF" stroke="#E2E8F0"/>
      <text x="28" y="34" font-size="20" font-weight="700" fill="#0F172A" stroke="none">2. Lamba</text>
      <g transform="translate(34,54)">
        <path d="M34 4v12"/>
        <path d="M16 18 34 8l18 10"/>
        <path d="M18 18h32"/>
        <path d="M22 18v14a2 2 0 0 0 2 2h20a2 2 0 0 0 2-2V18"/>
        <path d="M30 34v8"/>
        <path d="M38 34v8"/>
      </g>
      <text x="110" y="84" font-size="14" fill="#334155" stroke="none">Aydinlatma odakli dekorasyon dili</text>
      <text x="110" y="106" font-size="13" fill="#64748B" stroke="none">Daha premium his</text>
    </g>

    <g transform="translate(50,290)">
      <rect width="370" height="140" rx="20" fill="#FFFFFF" stroke="#E2E8F0"/>
      <text x="28" y="34" font-size="20" font-weight="700" fill="#0F172A" stroke="none">3. Koltuk + Bitki</text>
      <g transform="translate(24,52)">
        <path d="M12 38v-8a6 6 0 0 1 6-6h24a6 6 0 0 1 6 6v8"/>
        <path d="M16 24v-8a6 6 0 0 1 6-6h8a6 6 0 0 1 6 6v8"/>
        <path d="M8 38h44"/>
        <path d="M20 38v8"/>
        <path d="M40 38v8"/>
        <path d="M68 44c0-8 6-14 14-14-2 6-2 12-14 14Z"/>
        <path d="M84 42c0-10-7-18-16-18 2 8 4 16 16 18Z"/>
        <path d="M76 42v10"/>
        <path d="M68 52h16"/>
      </g>
      <text x="110" y="84" font-size="14" fill="#334155" stroke="none">Dekorasyon ve yasam hissi birlikte</text>
      <text x="110" y="106" font-size="13" fill="#64748B" stroke="none">Daha sicak ve davetkar</text>
    </g>

    <g transform="translate(480,290)">
      <rect width="370" height="140" rx="20" fill="#FFFFFF" stroke="#E2E8F0"/>
      <text x="28" y="34" font-size="20" font-weight="700" fill="#0F172A" stroke="none">4. Oda Cizgisi</text>
      <g transform="translate(34,54)">
        <path d="M8 42V14l22-10 22 10v28"/>
        <path d="M8 14h44"/>
        <path d="M30 4v38"/>
        <path d="M14 22h10"/>
        <path d="M36 22h10"/>
        <path d="M18 42v-8h24v8"/>
      </g>
      <text x="110" y="84" font-size="14" fill="#334155" stroke="none">Mekana mudahale / oda donusumu</text>
      <text x="110" y="106" font-size="13" fill="#64748B" stroke="none">Daha kurumsal</text>
    </g>

    <g transform="translate(50,460)">
      <rect width="370" height="140" rx="20" fill="#FFFFFF" stroke="#E2E8F0"/>
      <text x="28" y="34" font-size="20" font-weight="700" fill="#0F172A" stroke="none">5. Tablo + Koltuk</text>
      <g transform="translate(28,52)">
        <rect x="8" y="2" width="24" height="16" rx="2"/>
        <path d="M12 14 18 8l4 4 4-3 2 5"/>
        <path d="M8 22h44"/>
        <path d="M12 38v-6a6 6 0 0 1 6-6h20a6 6 0 0 1 6 6v6"/>
        <path d="M18 26v-6a6 6 0 0 1 6-6h8a6 6 0 0 1 6 6v6"/>
      </g>
      <text x="110" y="84" font-size="14" fill="#334155" stroke="none">Duvar dekoru + mobilya birlikte</text>
      <text x="110" y="106" font-size="13" fill="#64748B" stroke="none">Dekorasyon semantigi guclu</text>
    </g>

    <g transform="translate(480,460)">
      <rect width="370" height="140" rx="20" fill="#FFFFFF" stroke="#E2E8F0"/>
      <text x="28" y="34" font-size="20" font-weight="700" fill="#0F172A" stroke="none">6. Katmanli Oda</text>
      <g transform="translate(34,54)">
        <path d="M8 40h48"/>
        <path d="M12 40V18h40v22"/>
        <path d="M18 18V8h28v10"/>
        <path d="M22 28h8"/>
        <path d="M34 28h8"/>
        <path d="M24 40v-8h16v8"/>
      </g>
      <text x="110" y="84" font-size="14" fill="#334155" stroke="none">Once / sonra donusum hissi</text>
      <text x="110" y="106" font-size="13" fill="#64748B" stroke="none">Temiz ve teknik</text>
    </g>

    <g transform="translate(50,630)">
      <rect width="370" height="140" rx="20" fill="#FFFFFF" stroke="#E2E8F0"/>
      <text x="28" y="34" font-size="20" font-weight="700" fill="#0F172A" stroke="none">7. Yastik / Minder</text>
      <g transform="translate(30,56)">
        <rect x="8" y="16" width="18" height="18" rx="4"/>
        <rect x="38" y="16" width="18" height="18" rx="4"/>
        <path d="M6 38h52"/>
        <path d="M12 16V8h40v8"/>
        <path d="M10 38v8"/>
        <path d="M54 38v8"/>
      </g>
      <text x="110" y="84" font-size="14" fill="#334155" stroke="none">Daha yumusak, lifestyle bir dil</text>
      <text x="110" y="106" font-size="13" fill="#64748B" stroke="none">Az teknik, daha dekoratif</text>
    </g>

    <g transform="translate(480,630)">
      <rect width="370" height="140" rx="20" fill="#FFFFFF" stroke="#E2E8F0"/>
      <text x="28" y="34" font-size="20" font-weight="700" fill="#0F172A" stroke="none">8. Vazo</text>
      <g transform="translate(38,54)">
        <path d="M28 4c0 6-4 8-4 12v4c0 6 4 10 12 10s12-4 12-10v-4c0-4-4-6-4-12"/>
        <path d="M28 4h16"/>
        <path d="M36 4V0"/>
        <path d="M36 30v12"/>
        <path d="M20 42h32"/>
      </g>
      <text x="110" y="84" font-size="14" fill="#334155" stroke="none">Daha editorial / tasarim odakli</text>
      <text x="110" y="106" font-size="13" fill="#64748B" stroke="none">Premium ama daha soyut</text>
    </g>

    <g transform="translate(50,800)">
      <rect width="370" height="140" rx="20" fill="#FFFFFF" stroke="#E2E8F0"/>
      <text x="28" y="34" font-size="20" font-weight="700" fill="#0F172A" stroke="none">9. Perde + Pencere</text>
      <g transform="translate(30,52)">
        <rect x="12" y="6" width="36" height="34" rx="2"/>
        <path d="M30 6v34"/>
        <path d="M12 23h36"/>
        <path d="M6 4h48"/>
        <path d="M6 8c4 6 4 20 0 28"/>
        <path d="M54 8c-4 6-4 20 0 28"/>
      </g>
      <text x="110" y="84" font-size="14" fill="#334155" stroke="none">Ic mekan / pencere dressing vurgusu</text>
      <text x="110" y="106" font-size="13" fill="#64748B" stroke="none">Yumusak, dekoratif, farkli</text>
    </g>

    <g transform="translate(480,800)">
      <rect width="370" height="140" rx="20" fill="#FFFFFF" stroke="#E2E8F0"/>
      <text x="28" y="34" font-size="20" font-weight="700" fill="#0F172A" stroke="none">10. Magic Wand + Oda</text>
      <g transform="translate(28,50)">
        <path d="M10 40h44"/>
        <path d="M14 40V18h36v22"/>
        <path d="M18 18l8-8 8 8"/>
        <path d="M48 8 58 18"/>
        <path d="M56 10l4-4"/>
        <path d="M60 14h6"/>
        <path d="M54 4v6"/>
      </g>
      <text x="110" y="84" font-size="14" fill="#334155" stroke="none">AI destekli staging hissi</text>
      <text x="110" y="106" font-size="13" fill="#64748B" stroke="none">Urun vaadini en net anlatan</text>
    </g>
  </g>
</svg>
